<?xml version="1.0" encoding="utf-8"?><!DOCTYPE svg PUBLIC "-//W3C//DTD SVG 1.1//EN" "http://www.w3.org/Graphics/SVG/1.1/DTD/svg11.dtd"><svg xmlns="http://www.w3.org/2000/svg" viewBox="0 0 57 57" shape-rendering="crispEdges"><path fill="#ffffff" d="M0 0h57v57H0z"/><path stroke="#000000" d="M10 10.5h7m3 0h2m2 0h2m1 0h1m1 0h2m3 0h1m3 0h1m1 0h7M10 11.5h1m5 0h1m1 0h1m2 0h1m1 0h1m2 0h1m2 0h4m1 0h4m2 0h1m5 0h1M10 12.5h1m1 0h3m1 0h1m1 0h1m1 0h1m2 0h1m2 0h3m6 0h2m3 0h1m1 0h3m1 0h1M10 13.5h1m1 0h3m1 0h1m1 0h1m1 0h1m1 0h1m4 0h3m1 0h1m3 0h1m2 0h1m1 0h1m1 0h3m1 0h1M10 14.5h1m1 0h3m1 0h1m2 0h3m1 0h2m1 0h1m4 0h2m1 0h1m1 0h2m2 0h1m1 0h3m1 0h1M10 15.5h1m5 0h1m5 0h2m1 0h4m1 0h3m1 0h5m1 0h1m5 0h1M10 16.5h7m1 0h1m1 0h1m1 0h1m1 0h1m1 0h1m1 0h1m1 0h1m1 0h1m1 0h1m1 0h1m1 0h1m1 0h7M18 17.5h5m1 0h1m1 0h3m2 0h4m2 0h2M10 18.5h1m5 0h1m1 0h1m1 0h2m2 0h2m2 0h3m2 0h2m2 0h4m2 0h3M11 19.5h3m1 0h1m1 0h3m1 0h4m1 0h1m2 0h2m2 0h3m1 0h4M12 20.5h5m4 0h2m1 0h2m1 0h1m1 0h1m1 0h1m2 0h2m1 0h2m1 0h1m2 0h4M11 21.5h1m1 0h1m5 0h2m1 0h2m6 0h3m1 0h3m2 0h3m2 0h1m1 0h1M11 22.5h1m2 0h1m1 0h2m3 0h2m2 0h2m2 0h1m1 0h2m1 0h1m1 0h3m2 0h1m1 0h2M10 23.5h4m3 0h4m2 0h1m1 0h4m1 0h3m2 0h1m7 0h1M13 24.5h1m1 0h2m4 0h4m3 0h1m1 0h1m3 0h3m3 0h1m3 0h1M13 25.5h2m3 0h1m2 0h6m2 0h5m1 0h4m2 0h4M11 26.5h1m2 0h1m1 0h3m1 0h3m5 0h3m2 0h1m1 0h1m1 0h2m1 0h6M12 27.5h4m1 0h2m1 0h5m4 0h1m2 0h1m1 0h2m1 0h1m2 0h5M11 28.5h1m4 0h1m1 0h3m2 0h2m1 0h1m2 0h5m1 0h2m1 0h1m2 0h2m3 0h1M10 29.5h2m2 0h1m4 0h1m3 0h3m2 0h1m3 0h1m1 0h3m2 0h1m3 0h1m1 0h2M11 30.5h1m1 0h2m1 0h1m1 0h1m2 0h1m1 0h4m2 0h1m1 0h1m1 0h1m3 0h3m2 0h2m2 0h1M10 31.5h3m1 0h2m1 0h2m2 0h3m2 0h4m1 0h1m4 0h3m2 0h3M16 32.5h1m3 0h4m1 0h1m2 0h4m2 0h2m2 0h2m2 0h1m1 0h1m1 0h1M10 33.5h1m4 0h1m2 0h1m2 0h1m3 0h2m1 0h2m2 0h1m4 0h3m1 0h3m1 0h2M12 34.5h1m3 0h2m2 0h1m2 0h1m1 0h1m2 0h2m2 0h2m2 0h1m2 0h4m2 0h2M10 35.5h2m1 0h2m2 0h2m2 0h1m3 0h1m1 0h1m3 0h2m1 0h4m1 0h2m2 0h2M10 36.5h1m1 0h1m3 0h3m1 0h2m2 0h3m3 0h2m1 0h5m1 0h2m1 0h1m2 0h2M10 37.5h1m6 0h1m2 0h1m2 0h2m1 0h1m1 0h1m1 0h8m1 0h1m1 0h2m3 0h1M10 38.5h1m1 0h1m1 0h1m1 0h1m1 0h1m1 0h1m1 0h3m1 0h4m1 0h1m2 0h1m2 0h8M18 39.5h2m1 0h3m2 0h1m1 0h6m2 0h1m1 0h1m3 0h1M10 40.5h7m3 0h1m1 0h6m3 0h2m3 0h1m1 0h1m1 0h1m1 0h2m1 0h1M10 41.5h1m5 0h1m3 0h1m4 0h1m2 0h2m1 0h5m2 0h1m3 0h2m2 0h1M10 42.5h1m1 0h3m1 0h1m2 0h1m1 0h2m3 0h6m3 0h1m1 0h9M10 43.5h1m1 0h3m1 0h1m2 0h2m4 0h2m3 0h2m2 0h2m1 0h1m1 0h1m3 0h2m1 0h1M10 44.5h1m1 0h3m1 0h1m2 0h3m1 0h2m2 0h3m1 0h2m3 0h2m1 0h1m1 0h1m1 0h2m1 0h1M10 45.5h1m5 0h1m2 0h3m2 0h2m1 0h1m1 0h1m1 0h1m1 0h7m1 0h1m4 0h1M10 46.5h7m1 0h3m2 0h3m2 0h3m1 0h1m3 0h2m3 0h4m1 0h1"/></svg>
