<?xml version="1.0" standalone="yes"?>
<svg xmlns="http://www.w3.org/2000/svg" version="1.1" viewBox="0 0 256 256">
  <rect x="0" y="0" width="256" height="256" style="fill:#e1dede;shape-rendering:crispEdges;"/>
  <rect x="27.675675675675677" y="27.675675675675677" width="6.918918918918919" height="6.918918918918919" style="fill:#000000;shape-rendering:crispEdges;"/>
  <rect x="34.5945945945946" y="27.675675675675677" width="6.918918918918919" height="6.918918918918919" style="fill:#000000;shape-rendering:crispEdges;"/>
  <rect x="41.513513513513516" y="27.675675675675677" width="6.918918918918919" height="6.918918918918919" style="fill:#000000;shape-rendering:crispEdges;"/>
  <rect x="48.432432432432435" y="27.675675675675677" width="6.918918918918919" height="6.918918918918919" style="fill:#000000;shape-rendering:crispEdges;"/>
  <rect x="55.351351351351354" y="27.675675675675677" width="6.918918918918919" height="6.918918918918919" style="fill:#000000;shape-rendering:crispEdges;"/>
  <rect x="62.270270270270274" y="27.675675675675677" width="6.918918918918919" height="6.918918918918919" style="fill:#000000;shape-rendering:crispEdges;"/>
  <rect x="69.1891891891892" y="27.675675675675677" width="6.918918918918919" height="6.918918918918919" style="fill:#000000;shape-rendering:crispEdges;"/>
  <rect x="89.94594594594595" y="27.675675675675677" width="6.918918918918919" height="6.918918918918919" style="fill:#000000;shape-rendering:crispEdges;"/>
  <rect x="110.70270270270271" y="27.675675675675677" width="6.918918918918919" height="6.918918918918919" style="fill:#000000;shape-rendering:crispEdges;"/>
  <rect x="138.3783783783784" y="27.675675675675677" width="6.918918918918919" height="6.918918918918919" style="fill:#000000;shape-rendering:crispEdges;"/>
  <rect x="145.2972972972973" y="27.675675675675677" width="6.918918918918919" height="6.918918918918919" style="fill:#000000;shape-rendering:crispEdges;"/>
  <rect x="166.05405405405406" y="27.675675675675677" width="6.918918918918919" height="6.918918918918919" style="fill:#000000;shape-rendering:crispEdges;"/>
  <rect x="179.8918918918919" y="27.675675675675677" width="6.918918918918919" height="6.918918918918919" style="fill:#000000;shape-rendering:crispEdges;"/>
  <rect x="186.81081081081084" y="27.675675675675677" width="6.918918918918919" height="6.918918918918919" style="fill:#000000;shape-rendering:crispEdges;"/>
  <rect x="193.72972972972974" y="27.675675675675677" width="6.918918918918919" height="6.918918918918919" style="fill:#000000;shape-rendering:crispEdges;"/>
  <rect x="200.64864864864865" y="27.675675675675677" width="6.918918918918919" height="6.918918918918919" style="fill:#000000;shape-rendering:crispEdges;"/>
  <rect x="207.56756756756758" y="27.675675675675677" width="6.918918918918919" height="6.918918918918919" style="fill:#000000;shape-rendering:crispEdges;"/>
  <rect x="214.4864864864865" y="27.675675675675677" width="6.918918918918919" height="6.918918918918919" style="fill:#000000;shape-rendering:crispEdges;"/>
  <rect x="221.40540540540542" y="27.675675675675677" width="6.918918918918919" height="6.918918918918919" style="fill:#000000;shape-rendering:crispEdges;"/>
  <rect x="27.675675675675677" y="34.5945945945946" width="6.918918918918919" height="6.918918918918919" style="fill:#000000;shape-rendering:crispEdges;"/>
  <rect x="69.1891891891892" y="34.5945945945946" width="6.918918918918919" height="6.918918918918919" style="fill:#000000;shape-rendering:crispEdges;"/>
  <rect x="89.94594594594595" y="34.5945945945946" width="6.918918918918919" height="6.918918918918919" style="fill:#000000;shape-rendering:crispEdges;"/>
  <rect x="96.86486486486487" y="34.5945945945946" width="6.918918918918919" height="6.918918918918919" style="fill:#000000;shape-rendering:crispEdges;"/>
  <rect x="110.70270270270271" y="34.5945945945946" width="6.918918918918919" height="6.918918918918919" style="fill:#000000;shape-rendering:crispEdges;"/>
  <rect x="124.54054054054055" y="34.5945945945946" width="6.918918918918919" height="6.918918918918919" style="fill:#000000;shape-rendering:crispEdges;"/>
  <rect x="131.45945945945948" y="34.5945945945946" width="6.918918918918919" height="6.918918918918919" style="fill:#000000;shape-rendering:crispEdges;"/>
  <rect x="166.05405405405406" y="34.5945945945946" width="6.918918918918919" height="6.918918918918919" style="fill:#000000;shape-rendering:crispEdges;"/>
  <rect x="179.8918918918919" y="34.5945945945946" width="6.918918918918919" height="6.918918918918919" style="fill:#000000;shape-rendering:crispEdges;"/>
  <rect x="221.40540540540542" y="34.5945945945946" width="6.918918918918919" height="6.918918918918919" style="fill:#000000;shape-rendering:crispEdges;"/>
  <rect x="27.675675675675677" y="41.513513513513516" width="6.918918918918919" height="6.918918918918919" style="fill:#000000;shape-rendering:crispEdges;"/>
  <rect x="41.513513513513516" y="41.513513513513516" width="6.918918918918919" height="6.918918918918919" style="fill:#000000;shape-rendering:crispEdges;"/>
  <rect x="48.432432432432435" y="41.513513513513516" width="6.918918918918919" height="6.918918918918919" style="fill:#000000;shape-rendering:crispEdges;"/>
  <rect x="55.351351351351354" y="41.513513513513516" width="6.918918918918919" height="6.918918918918919" style="fill:#000000;shape-rendering:crispEdges;"/>
  <rect x="69.1891891891892" y="41.513513513513516" width="6.918918918918919" height="6.918918918918919" style="fill:#000000;shape-rendering:crispEdges;"/>
  <rect x="89.94594594594595" y="41.513513513513516" width="6.918918918918919" height="6.918918918918919" style="fill:#000000;shape-rendering:crispEdges;"/>
  <rect x="96.86486486486487" y="41.513513513513516" width="6.918918918918919" height="6.918918918918919" style="fill:#000000;shape-rendering:crispEdges;"/>
  <rect x="103.78378378378379" y="41.513513513513516" width="6.918918918918919" height="6.918918918918919" style="fill:#000000;shape-rendering:crispEdges;"/>
  <rect x="117.62162162162163" y="41.513513513513516" width="6.918918918918919" height="6.918918918918919" style="fill:#000000;shape-rendering:crispEdges;"/>
  <rect x="138.3783783783784" y="41.513513513513516" width="6.918918918918919" height="6.918918918918919" style="fill:#000000;shape-rendering:crispEdges;"/>
  <rect x="159.13513513513516" y="41.513513513513516" width="6.918918918918919" height="6.918918918918919" style="fill:#000000;shape-rendering:crispEdges;"/>
  <rect x="166.05405405405406" y="41.513513513513516" width="6.918918918918919" height="6.918918918918919" style="fill:#000000;shape-rendering:crispEdges;"/>
  <rect x="179.8918918918919" y="41.513513513513516" width="6.918918918918919" height="6.918918918918919" style="fill:#000000;shape-rendering:crispEdges;"/>
  <rect x="193.72972972972974" y="41.513513513513516" width="6.918918918918919" height="6.918918918918919" style="fill:#000000;shape-rendering:crispEdges;"/>
  <rect x="200.64864864864865" y="41.513513513513516" width="6.918918918918919" height="6.918918918918919" style="fill:#000000;shape-rendering:crispEdges;"/>
  <rect x="207.56756756756758" y="41.513513513513516" width="6.918918918918919" height="6.918918918918919" style="fill:#000000;shape-rendering:crispEdges;"/>
  <rect x="221.40540540540542" y="41.513513513513516" width="6.918918918918919" height="6.918918918918919" style="fill:#000000;shape-rendering:crispEdges;"/>
  <rect x="27.675675675675677" y="48.432432432432435" width="6.918918918918919" height="6.918918918918919" style="fill:#000000;shape-rendering:crispEdges;"/>
  <rect x="41.513513513513516" y="48.432432432432435" width="6.918918918918919" height="6.918918918918919" style="fill:#000000;shape-rendering:crispEdges;"/>
  <rect x="48.432432432432435" y="48.432432432432435" width="6.918918918918919" height="6.918918918918919" style="fill:#000000;shape-rendering:crispEdges;"/>
  <rect x="55.351351351351354" y="48.432432432432435" width="6.918918918918919" height="6.918918918918919" style="fill:#000000;shape-rendering:crispEdges;"/>
  <rect x="69.1891891891892" y="48.432432432432435" width="6.918918918918919" height="6.918918918918919" style="fill:#000000;shape-rendering:crispEdges;"/>
  <rect x="103.78378378378379" y="48.432432432432435" width="6.918918918918919" height="6.918918918918919" style="fill:#000000;shape-rendering:crispEdges;"/>
  <rect x="110.70270270270271" y="48.432432432432435" width="6.918918918918919" height="6.918918918918919" style="fill:#000000;shape-rendering:crispEdges;"/>
  <rect x="131.45945945945948" y="48.432432432432435" width="6.918918918918919" height="6.918918918918919" style="fill:#000000;shape-rendering:crispEdges;"/>
  <rect x="138.3783783783784" y="48.432432432432435" width="6.918918918918919" height="6.918918918918919" style="fill:#000000;shape-rendering:crispEdges;"/>
  <rect x="145.2972972972973" y="48.432432432432435" width="6.918918918918919" height="6.918918918918919" style="fill:#000000;shape-rendering:crispEdges;"/>
  <rect x="152.21621621621622" y="48.432432432432435" width="6.918918918918919" height="6.918918918918919" style="fill:#000000;shape-rendering:crispEdges;"/>
  <rect x="179.8918918918919" y="48.432432432432435" width="6.918918918918919" height="6.918918918918919" style="fill:#000000;shape-rendering:crispEdges;"/>
  <rect x="193.72972972972974" y="48.432432432432435" width="6.918918918918919" height="6.918918918918919" style="fill:#000000;shape-rendering:crispEdges;"/>
  <rect x="200.64864864864865" y="48.432432432432435" width="6.918918918918919" height="6.918918918918919" style="fill:#000000;shape-rendering:crispEdges;"/>
  <rect x="207.56756756756758" y="48.432432432432435" width="6.918918918918919" height="6.918918918918919" style="fill:#000000;shape-rendering:crispEdges;"/>
  <rect x="221.40540540540542" y="48.432432432432435" width="6.918918918918919" height="6.918918918918919" style="fill:#000000;shape-rendering:crispEdges;"/>
  <rect x="27.675675675675677" y="55.351351351351354" width="6.918918918918919" height="6.918918918918919" style="fill:#000000;shape-rendering:crispEdges;"/>
  <rect x="41.513513513513516" y="55.351351351351354" width="6.918918918918919" height="6.918918918918919" style="fill:#000000;shape-rendering:crispEdges;"/>
  <rect x="48.432432432432435" y="55.351351351351354" width="6.918918918918919" height="6.918918918918919" style="fill:#000000;shape-rendering:crispEdges;"/>
  <rect x="55.351351351351354" y="55.351351351351354" width="6.918918918918919" height="6.918918918918919" style="fill:#000000;shape-rendering:crispEdges;"/>
  <rect x="69.1891891891892" y="55.351351351351354" width="6.918918918918919" height="6.918918918918919" style="fill:#000000;shape-rendering:crispEdges;"/>
  <rect x="83.02702702702703" y="55.351351351351354" width="6.918918918918919" height="6.918918918918919" style="fill:#000000;shape-rendering:crispEdges;"/>
  <rect x="96.86486486486487" y="55.351351351351354" width="6.918918918918919" height="6.918918918918919" style="fill:#000000;shape-rendering:crispEdges;"/>
  <rect x="110.70270270270271" y="55.351351351351354" width="6.918918918918919" height="6.918918918918919" style="fill:#000000;shape-rendering:crispEdges;"/>
  <rect x="117.62162162162163" y="55.351351351351354" width="6.918918918918919" height="6.918918918918919" style="fill:#000000;shape-rendering:crispEdges;"/>
  <rect x="159.13513513513516" y="55.351351351351354" width="6.918918918918919" height="6.918918918918919" style="fill:#000000;shape-rendering:crispEdges;"/>
  <rect x="166.05405405405406" y="55.351351351351354" width="6.918918918918919" height="6.918918918918919" style="fill:#000000;shape-rendering:crispEdges;"/>
  <rect x="179.8918918918919" y="55.351351351351354" width="6.918918918918919" height="6.918918918918919" style="fill:#000000;shape-rendering:crispEdges;"/>
  <rect x="193.72972972972974" y="55.351351351351354" width="6.918918918918919" height="6.918918918918919" style="fill:#000000;shape-rendering:crispEdges;"/>
  <rect x="200.64864864864865" y="55.351351351351354" width="6.918918918918919" height="6.918918918918919" style="fill:#000000;shape-rendering:crispEdges;"/>
  <rect x="207.56756756756758" y="55.351351351351354" width="6.918918918918919" height="6.918918918918919" style="fill:#000000;shape-rendering:crispEdges;"/>
  <rect x="221.40540540540542" y="55.351351351351354" width="6.918918918918919" height="6.918918918918919" style="fill:#000000;shape-rendering:crispEdges;"/>
  <rect x="27.675675675675677" y="62.270270270270274" width="6.918918918918919" height="6.918918918918919" style="fill:#000000;shape-rendering:crispEdges;"/>
  <rect x="69.1891891891892" y="62.270270270270274" width="6.918918918918919" height="6.918918918918919" style="fill:#000000;shape-rendering:crispEdges;"/>
  <rect x="83.02702702702703" y="62.270270270270274" width="6.918918918918919" height="6.918918918918919" style="fill:#000000;shape-rendering:crispEdges;"/>
  <rect x="89.94594594594595" y="62.270270270270274" width="6.918918918918919" height="6.918918918918919" style="fill:#000000;shape-rendering:crispEdges;"/>
  <rect x="117.62162162162163" y="62.270270270270274" width="6.918918918918919" height="6.918918918918919" style="fill:#000000;shape-rendering:crispEdges;"/>
  <rect x="124.54054054054055" y="62.270270270270274" width="6.918918918918919" height="6.918918918918919" style="fill:#000000;shape-rendering:crispEdges;"/>
  <rect x="152.21621621621622" y="62.270270270270274" width="6.918918918918919" height="6.918918918918919" style="fill:#000000;shape-rendering:crispEdges;"/>
  <rect x="179.8918918918919" y="62.270270270270274" width="6.918918918918919" height="6.918918918918919" style="fill:#000000;shape-rendering:crispEdges;"/>
  <rect x="221.40540540540542" y="62.270270270270274" width="6.918918918918919" height="6.918918918918919" style="fill:#000000;shape-rendering:crispEdges;"/>
  <rect x="27.675675675675677" y="69.1891891891892" width="6.918918918918919" height="6.918918918918919" style="fill:#000000;shape-rendering:crispEdges;"/>
  <rect x="34.5945945945946" y="69.1891891891892" width="6.918918918918919" height="6.918918918918919" style="fill:#000000;shape-rendering:crispEdges;"/>
  <rect x="41.513513513513516" y="69.1891891891892" width="6.918918918918919" height="6.918918918918919" style="fill:#000000;shape-rendering:crispEdges;"/>
  <rect x="48.432432432432435" y="69.1891891891892" width="6.918918918918919" height="6.918918918918919" style="fill:#000000;shape-rendering:crispEdges;"/>
  <rect x="55.351351351351354" y="69.1891891891892" width="6.918918918918919" height="6.918918918918919" style="fill:#000000;shape-rendering:crispEdges;"/>
  <rect x="62.270270270270274" y="69.1891891891892" width="6.918918918918919" height="6.918918918918919" style="fill:#000000;shape-rendering:crispEdges;"/>
  <rect x="69.1891891891892" y="69.1891891891892" width="6.918918918918919" height="6.918918918918919" style="fill:#000000;shape-rendering:crispEdges;"/>
  <rect x="83.02702702702703" y="69.1891891891892" width="6.918918918918919" height="6.918918918918919" style="fill:#000000;shape-rendering:crispEdges;"/>
  <rect x="96.86486486486487" y="69.1891891891892" width="6.918918918918919" height="6.918918918918919" style="fill:#000000;shape-rendering:crispEdges;"/>
  <rect x="110.70270270270271" y="69.1891891891892" width="6.918918918918919" height="6.918918918918919" style="fill:#000000;shape-rendering:crispEdges;"/>
  <rect x="124.54054054054055" y="69.1891891891892" width="6.918918918918919" height="6.918918918918919" style="fill:#000000;shape-rendering:crispEdges;"/>
  <rect x="138.3783783783784" y="69.1891891891892" width="6.918918918918919" height="6.918918918918919" style="fill:#000000;shape-rendering:crispEdges;"/>
  <rect x="152.21621621621622" y="69.1891891891892" width="6.918918918918919" height="6.918918918918919" style="fill:#000000;shape-rendering:crispEdges;"/>
  <rect x="166.05405405405406" y="69.1891891891892" width="6.918918918918919" height="6.918918918918919" style="fill:#000000;shape-rendering:crispEdges;"/>
  <rect x="179.8918918918919" y="69.1891891891892" width="6.918918918918919" height="6.918918918918919" style="fill:#000000;shape-rendering:crispEdges;"/>
  <rect x="186.81081081081084" y="69.1891891891892" width="6.918918918918919" height="6.918918918918919" style="fill:#000000;shape-rendering:crispEdges;"/>
  <rect x="193.72972972972974" y="69.1891891891892" width="6.918918918918919" height="6.918918918918919" style="fill:#000000;shape-rendering:crispEdges;"/>
  <rect x="200.64864864864865" y="69.1891891891892" width="6.918918918918919" height="6.918918918918919" style="fill:#000000;shape-rendering:crispEdges;"/>
  <rect x="207.56756756756758" y="69.1891891891892" width="6.918918918918919" height="6.918918918918919" style="fill:#000000;shape-rendering:crispEdges;"/>
  <rect x="214.4864864864865" y="69.1891891891892" width="6.918918918918919" height="6.918918918918919" style="fill:#000000;shape-rendering:crispEdges;"/>
  <rect x="221.40540540540542" y="69.1891891891892" width="6.918918918918919" height="6.918918918918919" style="fill:#000000;shape-rendering:crispEdges;"/>
  <rect x="83.02702702702703" y="76.10810810810811" width="6.918918918918919" height="6.918918918918919" style="fill:#000000;shape-rendering:crispEdges;"/>
  <rect x="110.70270270270271" y="76.10810810810811" width="6.918918918918919" height="6.918918918918919" style="fill:#000000;shape-rendering:crispEdges;"/>
  <rect x="138.3783783783784" y="76.10810810810811" width="6.918918918918919" height="6.918918918918919" style="fill:#000000;shape-rendering:crispEdges;"/>
  <rect x="145.2972972972973" y="76.10810810810811" width="6.918918918918919" height="6.918918918918919" style="fill:#000000;shape-rendering:crispEdges;"/>
  <rect x="34.5945945945946" y="83.02702702702703" width="6.918918918918919" height="6.918918918918919" style="fill:#000000;shape-rendering:crispEdges;"/>
  <rect x="62.270270270270274" y="83.02702702702703" width="6.918918918918919" height="6.918918918918919" style="fill:#000000;shape-rendering:crispEdges;"/>
  <rect x="69.1891891891892" y="83.02702702702703" width="6.918918918918919" height="6.918918918918919" style="fill:#000000;shape-rendering:crispEdges;"/>
  <rect x="76.10810810810811" y="83.02702702702703" width="6.918918918918919" height="6.918918918918919" style="fill:#000000;shape-rendering:crispEdges;"/>
  <rect x="89.94594594594595" y="83.02702702702703" width="6.918918918918919" height="6.918918918918919" style="fill:#000000;shape-rendering:crispEdges;"/>
  <rect x="117.62162162162163" y="83.02702702702703" width="6.918918918918919" height="6.918918918918919" style="fill:#000000;shape-rendering:crispEdges;"/>
  <rect x="124.54054054054055" y="83.02702702702703" width="6.918918918918919" height="6.918918918918919" style="fill:#000000;shape-rendering:crispEdges;"/>
  <rect x="131.45945945945948" y="83.02702702702703" width="6.918918918918919" height="6.918918918918919" style="fill:#000000;shape-rendering:crispEdges;"/>
  <rect x="138.3783783783784" y="83.02702702702703" width="6.918918918918919" height="6.918918918918919" style="fill:#000000;shape-rendering:crispEdges;"/>
  <rect x="145.2972972972973" y="83.02702702702703" width="6.918918918918919" height="6.918918918918919" style="fill:#000000;shape-rendering:crispEdges;"/>
  <rect x="166.05405405405406" y="83.02702702702703" width="6.918918918918919" height="6.918918918918919" style="fill:#000000;shape-rendering:crispEdges;"/>
  <rect x="172.97297297297297" y="83.02702702702703" width="6.918918918918919" height="6.918918918918919" style="fill:#000000;shape-rendering:crispEdges;"/>
  <rect x="179.8918918918919" y="83.02702702702703" width="6.918918918918919" height="6.918918918918919" style="fill:#000000;shape-rendering:crispEdges;"/>
  <rect x="186.81081081081084" y="83.02702702702703" width="6.918918918918919" height="6.918918918918919" style="fill:#000000;shape-rendering:crispEdges;"/>
  <rect x="193.72972972972974" y="83.02702702702703" width="6.918918918918919" height="6.918918918918919" style="fill:#000000;shape-rendering:crispEdges;"/>
  <rect x="41.513513513513516" y="89.94594594594595" width="6.918918918918919" height="6.918918918918919" style="fill:#000000;shape-rendering:crispEdges;"/>
  <rect x="48.432432432432435" y="89.94594594594595" width="6.918918918918919" height="6.918918918918919" style="fill:#000000;shape-rendering:crispEdges;"/>
  <rect x="55.351351351351354" y="89.94594594594595" width="6.918918918918919" height="6.918918918918919" style="fill:#000000;shape-rendering:crispEdges;"/>
  <rect x="96.86486486486487" y="89.94594594594595" width="6.918918918918919" height="6.918918918918919" style="fill:#000000;shape-rendering:crispEdges;"/>
  <rect x="117.62162162162163" y="89.94594594594595" width="6.918918918918919" height="6.918918918918919" style="fill:#000000;shape-rendering:crispEdges;"/>
  <rect x="138.3783783783784" y="89.94594594594595" width="6.918918918918919" height="6.918918918918919" style="fill:#000000;shape-rendering:crispEdges;"/>
  <rect x="145.2972972972973" y="89.94594594594595" width="6.918918918918919" height="6.918918918918919" style="fill:#000000;shape-rendering:crispEdges;"/>
  <rect x="159.13513513513516" y="89.94594594594595" width="6.918918918918919" height="6.918918918918919" style="fill:#000000;shape-rendering:crispEdges;"/>
  <rect x="166.05405405405406" y="89.94594594594595" width="6.918918918918919" height="6.918918918918919" style="fill:#000000;shape-rendering:crispEdges;"/>
  <rect x="172.97297297297297" y="89.94594594594595" width="6.918918918918919" height="6.918918918918919" style="fill:#000000;shape-rendering:crispEdges;"/>
  <rect x="179.8918918918919" y="89.94594594594595" width="6.918918918918919" height="6.918918918918919" style="fill:#000000;shape-rendering:crispEdges;"/>
  <rect x="186.81081081081084" y="89.94594594594595" width="6.918918918918919" height="6.918918918918919" style="fill:#000000;shape-rendering:crispEdges;"/>
  <rect x="193.72972972972974" y="89.94594594594595" width="6.918918918918919" height="6.918918918918919" style="fill:#000000;shape-rendering:crispEdges;"/>
  <rect x="200.64864864864865" y="89.94594594594595" width="6.918918918918919" height="6.918918918918919" style="fill:#000000;shape-rendering:crispEdges;"/>
  <rect x="207.56756756756758" y="89.94594594594595" width="6.918918918918919" height="6.918918918918919" style="fill:#000000;shape-rendering:crispEdges;"/>
  <rect x="27.675675675675677" y="96.86486486486487" width="6.918918918918919" height="6.918918918918919" style="fill:#000000;shape-rendering:crispEdges;"/>
  <rect x="34.5945945945946" y="96.86486486486487" width="6.918918918918919" height="6.918918918918919" style="fill:#000000;shape-rendering:crispEdges;"/>
  <rect x="48.432432432432435" y="96.86486486486487" width="6.918918918918919" height="6.918918918918919" style="fill:#000000;shape-rendering:crispEdges;"/>
  <rect x="55.351351351351354" y="96.86486486486487" width="6.918918918918919" height="6.918918918918919" style="fill:#000000;shape-rendering:crispEdges;"/>
  <rect x="69.1891891891892" y="96.86486486486487" width="6.918918918918919" height="6.918918918918919" style="fill:#000000;shape-rendering:crispEdges;"/>
  <rect x="110.70270270270271" y="96.86486486486487" width="6.918918918918919" height="6.918918918918919" style="fill:#000000;shape-rendering:crispEdges;"/>
  <rect x="117.62162162162163" y="96.86486486486487" width="6.918918918918919" height="6.918918918918919" style="fill:#000000;shape-rendering:crispEdges;"/>
  <rect x="131.45945945945948" y="96.86486486486487" width="6.918918918918919" height="6.918918918918919" style="fill:#000000;shape-rendering:crispEdges;"/>
  <rect x="145.2972972972973" y="96.86486486486487" width="6.918918918918919" height="6.918918918918919" style="fill:#000000;shape-rendering:crispEdges;"/>
  <rect x="152.21621621621622" y="96.86486486486487" width="6.918918918918919" height="6.918918918918919" style="fill:#000000;shape-rendering:crispEdges;"/>
  <rect x="159.13513513513516" y="96.86486486486487" width="6.918918918918919" height="6.918918918918919" style="fill:#000000;shape-rendering:crispEdges;"/>
  <rect x="186.81081081081084" y="96.86486486486487" width="6.918918918918919" height="6.918918918918919" style="fill:#000000;shape-rendering:crispEdges;"/>
  <rect x="200.64864864864865" y="96.86486486486487" width="6.918918918918919" height="6.918918918918919" style="fill:#000000;shape-rendering:crispEdges;"/>
  <rect x="214.4864864864865" y="96.86486486486487" width="6.918918918918919" height="6.918918918918919" style="fill:#000000;shape-rendering:crispEdges;"/>
  <rect x="27.675675675675677" y="103.78378378378379" width="6.918918918918919" height="6.918918918918919" style="fill:#000000;shape-rendering:crispEdges;"/>
  <rect x="34.5945945945946" y="103.78378378378379" width="6.918918918918919" height="6.918918918918919" style="fill:#000000;shape-rendering:crispEdges;"/>
  <rect x="83.02702702702703" y="103.78378378378379" width="6.918918918918919" height="6.918918918918919" style="fill:#000000;shape-rendering:crispEdges;"/>
  <rect x="96.86486486486487" y="103.78378378378379" width="6.918918918918919" height="6.918918918918919" style="fill:#000000;shape-rendering:crispEdges;"/>
  <rect x="103.78378378378379" y="103.78378378378379" width="6.918918918918919" height="6.918918918918919" style="fill:#000000;shape-rendering:crispEdges;"/>
  <rect x="110.70270270270271" y="103.78378378378379" width="6.918918918918919" height="6.918918918918919" style="fill:#000000;shape-rendering:crispEdges;"/>
  <rect x="117.62162162162163" y="103.78378378378379" width="6.918918918918919" height="6.918918918918919" style="fill:#000000;shape-rendering:crispEdges;"/>
  <rect x="124.54054054054055" y="103.78378378378379" width="6.918918918918919" height="6.918918918918919" style="fill:#000000;shape-rendering:crispEdges;"/>
  <rect x="131.45945945945948" y="103.78378378378379" width="6.918918918918919" height="6.918918918918919" style="fill:#000000;shape-rendering:crispEdges;"/>
  <rect x="152.21621621621622" y="103.78378378378379" width="6.918918918918919" height="6.918918918918919" style="fill:#000000;shape-rendering:crispEdges;"/>
  <rect x="166.05405405405406" y="103.78378378378379" width="6.918918918918919" height="6.918918918918919" style="fill:#000000;shape-rendering:crispEdges;"/>
  <rect x="172.97297297297297" y="103.78378378378379" width="6.918918918918919" height="6.918918918918919" style="fill:#000000;shape-rendering:crispEdges;"/>
  <rect x="179.8918918918919" y="103.78378378378379" width="6.918918918918919" height="6.918918918918919" style="fill:#000000;shape-rendering:crispEdges;"/>
  <rect x="193.72972972972974" y="103.78378378378379" width="6.918918918918919" height="6.918918918918919" style="fill:#000000;shape-rendering:crispEdges;"/>
  <rect x="200.64864864864865" y="103.78378378378379" width="6.918918918918919" height="6.918918918918919" style="fill:#000000;shape-rendering:crispEdges;"/>
  <rect x="214.4864864864865" y="103.78378378378379" width="6.918918918918919" height="6.918918918918919" style="fill:#000000;shape-rendering:crispEdges;"/>
  <rect x="221.40540540540542" y="103.78378378378379" width="6.918918918918919" height="6.918918918918919" style="fill:#000000;shape-rendering:crispEdges;"/>
  <rect x="27.675675675675677" y="110.70270270270271" width="6.918918918918919" height="6.918918918918919" style="fill:#000000;shape-rendering:crispEdges;"/>
  <rect x="41.513513513513516" y="110.70270270270271" width="6.918918918918919" height="6.918918918918919" style="fill:#000000;shape-rendering:crispEdges;"/>
  <rect x="48.432432432432435" y="110.70270270270271" width="6.918918918918919" height="6.918918918918919" style="fill:#000000;shape-rendering:crispEdges;"/>
  <rect x="55.351351351351354" y="110.70270270270271" width="6.918918918918919" height="6.918918918918919" style="fill:#000000;shape-rendering:crispEdges;"/>
  <rect x="62.270270270270274" y="110.70270270270271" width="6.918918918918919" height="6.918918918918919" style="fill:#000000;shape-rendering:crispEdges;"/>
  <rect x="69.1891891891892" y="110.70270270270271" width="6.918918918918919" height="6.918918918918919" style="fill:#000000;shape-rendering:crispEdges;"/>
  <rect x="83.02702702702703" y="110.70270270270271" width="6.918918918918919" height="6.918918918918919" style="fill:#000000;shape-rendering:crispEdges;"/>
  <rect x="96.86486486486487" y="110.70270270270271" width="6.918918918918919" height="6.918918918918919" style="fill:#000000;shape-rendering:crispEdges;"/>
  <rect x="103.78378378378379" y="110.70270270270271" width="6.918918918918919" height="6.918918918918919" style="fill:#000000;shape-rendering:crispEdges;"/>
  <rect x="110.70270270270271" y="110.70270270270271" width="6.918918918918919" height="6.918918918918919" style="fill:#000000;shape-rendering:crispEdges;"/>
  <rect x="124.54054054054055" y="110.70270270270271" width="6.918918918918919" height="6.918918918918919" style="fill:#000000;shape-rendering:crispEdges;"/>
  <rect x="131.45945945945948" y="110.70270270270271" width="6.918918918918919" height="6.918918918918919" style="fill:#000000;shape-rendering:crispEdges;"/>
  <rect x="145.2972972972973" y="110.70270270270271" width="6.918918918918919" height="6.918918918918919" style="fill:#000000;shape-rendering:crispEdges;"/>
  <rect x="166.05405405405406" y="110.70270270270271" width="6.918918918918919" height="6.918918918918919" style="fill:#000000;shape-rendering:crispEdges;"/>
  <rect x="179.8918918918919" y="110.70270270270271" width="6.918918918918919" height="6.918918918918919" style="fill:#000000;shape-rendering:crispEdges;"/>
  <rect x="207.56756756756758" y="110.70270270270271" width="6.918918918918919" height="6.918918918918919" style="fill:#000000;shape-rendering:crispEdges;"/>
  <rect x="214.4864864864865" y="110.70270270270271" width="6.918918918918919" height="6.918918918918919" style="fill:#000000;shape-rendering:crispEdges;"/>
  <rect x="221.40540540540542" y="110.70270270270271" width="6.918918918918919" height="6.918918918918919" style="fill:#000000;shape-rendering:crispEdges;"/>
  <rect x="27.675675675675677" y="117.62162162162163" width="6.918918918918919" height="6.918918918918919" style="fill:#000000;shape-rendering:crispEdges;"/>
  <rect x="55.351351351351354" y="117.62162162162163" width="6.918918918918919" height="6.918918918918919" style="fill:#000000;shape-rendering:crispEdges;"/>
  <rect x="83.02702702702703" y="117.62162162162163" width="6.918918918918919" height="6.918918918918919" style="fill:#000000;shape-rendering:crispEdges;"/>
  <rect x="103.78378378378379" y="117.62162162162163" width="6.918918918918919" height="6.918918918918919" style="fill:#000000;shape-rendering:crispEdges;"/>
  <rect x="124.54054054054055" y="117.62162162162163" width="6.918918918918919" height="6.918918918918919" style="fill:#000000;shape-rendering:crispEdges;"/>
  <rect x="131.45945945945948" y="117.62162162162163" width="6.918918918918919" height="6.918918918918919" style="fill:#000000;shape-rendering:crispEdges;"/>
  <rect x="145.2972972972973" y="117.62162162162163" width="6.918918918918919" height="6.918918918918919" style="fill:#000000;shape-rendering:crispEdges;"/>
  <rect x="159.13513513513516" y="117.62162162162163" width="6.918918918918919" height="6.918918918918919" style="fill:#000000;shape-rendering:crispEdges;"/>
  <rect x="179.8918918918919" y="117.62162162162163" width="6.918918918918919" height="6.918918918918919" style="fill:#000000;shape-rendering:crispEdges;"/>
  <rect x="193.72972972972974" y="117.62162162162163" width="6.918918918918919" height="6.918918918918919" style="fill:#000000;shape-rendering:crispEdges;"/>
  <rect x="200.64864864864865" y="117.62162162162163" width="6.918918918918919" height="6.918918918918919" style="fill:#000000;shape-rendering:crispEdges;"/>
  <rect x="221.40540540540542" y="117.62162162162163" width="6.918918918918919" height="6.918918918918919" style="fill:#000000;shape-rendering:crispEdges;"/>
  <rect x="27.675675675675677" y="124.54054054054055" width="6.918918918918919" height="6.918918918918919" style="fill:#000000;shape-rendering:crispEdges;"/>
  <rect x="41.513513513513516" y="124.54054054054055" width="6.918918918918919" height="6.918918918918919" style="fill:#000000;shape-rendering:crispEdges;"/>
  <rect x="55.351351351351354" y="124.54054054054055" width="6.918918918918919" height="6.918918918918919" style="fill:#000000;shape-rendering:crispEdges;"/>
  <rect x="69.1891891891892" y="124.54054054054055" width="6.918918918918919" height="6.918918918918919" style="fill:#000000;shape-rendering:crispEdges;"/>
  <rect x="76.10810810810811" y="124.54054054054055" width="6.918918918918919" height="6.918918918918919" style="fill:#000000;shape-rendering:crispEdges;"/>
  <rect x="83.02702702702703" y="124.54054054054055" width="6.918918918918919" height="6.918918918918919" style="fill:#000000;shape-rendering:crispEdges;"/>
  <rect x="96.86486486486487" y="124.54054054054055" width="6.918918918918919" height="6.918918918918919" style="fill:#000000;shape-rendering:crispEdges;"/>
  <rect x="124.54054054054055" y="124.54054054054055" width="6.918918918918919" height="6.918918918918919" style="fill:#000000;shape-rendering:crispEdges;"/>
  <rect x="131.45945945945948" y="124.54054054054055" width="6.918918918918919" height="6.918918918918919" style="fill:#000000;shape-rendering:crispEdges;"/>
  <rect x="138.3783783783784" y="124.54054054054055" width="6.918918918918919" height="6.918918918918919" style="fill:#000000;shape-rendering:crispEdges;"/>
  <rect x="145.2972972972973" y="124.54054054054055" width="6.918918918918919" height="6.918918918918919" style="fill:#000000;shape-rendering:crispEdges;"/>
  <rect x="172.97297297297297" y="124.54054054054055" width="6.918918918918919" height="6.918918918918919" style="fill:#000000;shape-rendering:crispEdges;"/>
  <rect x="186.81081081081084" y="124.54054054054055" width="6.918918918918919" height="6.918918918918919" style="fill:#000000;shape-rendering:crispEdges;"/>
  <rect x="200.64864864864865" y="124.54054054054055" width="6.918918918918919" height="6.918918918918919" style="fill:#000000;shape-rendering:crispEdges;"/>
  <rect x="27.675675675675677" y="131.45945945945948" width="6.918918918918919" height="6.918918918918919" style="fill:#000000;shape-rendering:crispEdges;"/>
  <rect x="55.351351351351354" y="131.45945945945948" width="6.918918918918919" height="6.918918918918919" style="fill:#000000;shape-rendering:crispEdges;"/>
  <rect x="89.94594594594595" y="131.45945945945948" width="6.918918918918919" height="6.918918918918919" style="fill:#000000;shape-rendering:crispEdges;"/>
  <rect x="117.62162162162163" y="131.45945945945948" width="6.918918918918919" height="6.918918918918919" style="fill:#000000;shape-rendering:crispEdges;"/>
  <rect x="131.45945945945948" y="131.45945945945948" width="6.918918918918919" height="6.918918918918919" style="fill:#000000;shape-rendering:crispEdges;"/>
  <rect x="138.3783783783784" y="131.45945945945948" width="6.918918918918919" height="6.918918918918919" style="fill:#000000;shape-rendering:crispEdges;"/>
  <rect x="145.2972972972973" y="131.45945945945948" width="6.918918918918919" height="6.918918918918919" style="fill:#000000;shape-rendering:crispEdges;"/>
  <rect x="152.21621621621622" y="131.45945945945948" width="6.918918918918919" height="6.918918918918919" style="fill:#000000;shape-rendering:crispEdges;"/>
  <rect x="159.13513513513516" y="131.45945945945948" width="6.918918918918919" height="6.918918918918919" style="fill:#000000;shape-rendering:crispEdges;"/>
  <rect x="166.05405405405406" y="131.45945945945948" width="6.918918918918919" height="6.918918918918919" style="fill:#000000;shape-rendering:crispEdges;"/>
  <rect x="179.8918918918919" y="131.45945945945948" width="6.918918918918919" height="6.918918918918919" style="fill:#000000;shape-rendering:crispEdges;"/>
  <rect x="200.64864864864865" y="131.45945945945948" width="6.918918918918919" height="6.918918918918919" style="fill:#000000;shape-rendering:crispEdges;"/>
  <rect x="221.40540540540542" y="131.45945945945948" width="6.918918918918919" height="6.918918918918919" style="fill:#000000;shape-rendering:crispEdges;"/>
  <rect x="34.5945945945946" y="138.3783783783784" width="6.918918918918919" height="6.918918918918919" style="fill:#000000;shape-rendering:crispEdges;"/>
  <rect x="48.432432432432435" y="138.3783783783784" width="6.918918918918919" height="6.918918918918919" style="fill:#000000;shape-rendering:crispEdges;"/>
  <rect x="55.351351351351354" y="138.3783783783784" width="6.918918918918919" height="6.918918918918919" style="fill:#000000;shape-rendering:crispEdges;"/>
  <rect x="69.1891891891892" y="138.3783783783784" width="6.918918918918919" height="6.918918918918919" style="fill:#000000;shape-rendering:crispEdges;"/>
  <rect x="83.02702702702703" y="138.3783783783784" width="6.918918918918919" height="6.918918918918919" style="fill:#000000;shape-rendering:crispEdges;"/>
  <rect x="89.94594594594595" y="138.3783783783784" width="6.918918918918919" height="6.918918918918919" style="fill:#000000;shape-rendering:crispEdges;"/>
  <rect x="103.78378378378379" y="138.3783783783784" width="6.918918918918919" height="6.918918918918919" style="fill:#000000;shape-rendering:crispEdges;"/>
  <rect x="152.21621621621622" y="138.3783783783784" width="6.918918918918919" height="6.918918918918919" style="fill:#000000;shape-rendering:crispEdges;"/>
  <rect x="159.13513513513516" y="138.3783783783784" width="6.918918918918919" height="6.918918918918919" style="fill:#000000;shape-rendering:crispEdges;"/>
  <rect x="172.97297297297297" y="138.3783783783784" width="6.918918918918919" height="6.918918918918919" style="fill:#000000;shape-rendering:crispEdges;"/>
  <rect x="179.8918918918919" y="138.3783783783784" width="6.918918918918919" height="6.918918918918919" style="fill:#000000;shape-rendering:crispEdges;"/>
  <rect x="193.72972972972974" y="138.3783783783784" width="6.918918918918919" height="6.918918918918919" style="fill:#000000;shape-rendering:crispEdges;"/>
  <rect x="200.64864864864865" y="138.3783783783784" width="6.918918918918919" height="6.918918918918919" style="fill:#000000;shape-rendering:crispEdges;"/>
  <rect x="207.56756756756758" y="138.3783783783784" width="6.918918918918919" height="6.918918918918919" style="fill:#000000;shape-rendering:crispEdges;"/>
  <rect x="214.4864864864865" y="138.3783783783784" width="6.918918918918919" height="6.918918918918919" style="fill:#000000;shape-rendering:crispEdges;"/>
  <rect x="221.40540540540542" y="138.3783783783784" width="6.918918918918919" height="6.918918918918919" style="fill:#000000;shape-rendering:crispEdges;"/>
  <rect x="34.5945945945946" y="145.2972972972973" width="6.918918918918919" height="6.918918918918919" style="fill:#000000;shape-rendering:crispEdges;"/>
  <rect x="41.513513513513516" y="145.2972972972973" width="6.918918918918919" height="6.918918918918919" style="fill:#000000;shape-rendering:crispEdges;"/>
  <rect x="48.432432432432435" y="145.2972972972973" width="6.918918918918919" height="6.918918918918919" style="fill:#000000;shape-rendering:crispEdges;"/>
  <rect x="76.10810810810811" y="145.2972972972973" width="6.918918918918919" height="6.918918918918919" style="fill:#000000;shape-rendering:crispEdges;"/>
  <rect x="89.94594594594595" y="145.2972972972973" width="6.918918918918919" height="6.918918918918919" style="fill:#000000;shape-rendering:crispEdges;"/>
  <rect x="110.70270270270271" y="145.2972972972973" width="6.918918918918919" height="6.918918918918919" style="fill:#000000;shape-rendering:crispEdges;"/>
  <rect x="117.62162162162163" y="145.2972972972973" width="6.918918918918919" height="6.918918918918919" style="fill:#000000;shape-rendering:crispEdges;"/>
  <rect x="138.3783783783784" y="145.2972972972973" width="6.918918918918919" height="6.918918918918919" style="fill:#000000;shape-rendering:crispEdges;"/>
  <rect x="159.13513513513516" y="145.2972972972973" width="6.918918918918919" height="6.918918918918919" style="fill:#000000;shape-rendering:crispEdges;"/>
  <rect x="166.05405405405406" y="145.2972972972973" width="6.918918918918919" height="6.918918918918919" style="fill:#000000;shape-rendering:crispEdges;"/>
  <rect x="179.8918918918919" y="145.2972972972973" width="6.918918918918919" height="6.918918918918919" style="fill:#000000;shape-rendering:crispEdges;"/>
  <rect x="186.81081081081084" y="145.2972972972973" width="6.918918918918919" height="6.918918918918919" style="fill:#000000;shape-rendering:crispEdges;"/>
  <rect x="207.56756756756758" y="145.2972972972973" width="6.918918918918919" height="6.918918918918919" style="fill:#000000;shape-rendering:crispEdges;"/>
  <rect x="27.675675675675677" y="152.21621621621622" width="6.918918918918919" height="6.918918918918919" style="fill:#000000;shape-rendering:crispEdges;"/>
  <rect x="34.5945945945946" y="152.21621621621622" width="6.918918918918919" height="6.918918918918919" style="fill:#000000;shape-rendering:crispEdges;"/>
  <rect x="41.513513513513516" y="152.21621621621622" width="6.918918918918919" height="6.918918918918919" style="fill:#000000;shape-rendering:crispEdges;"/>
  <rect x="48.432432432432435" y="152.21621621621622" width="6.918918918918919" height="6.918918918918919" style="fill:#000000;shape-rendering:crispEdges;"/>
  <rect x="62.270270270270274" y="152.21621621621622" width="6.918918918918919" height="6.918918918918919" style="fill:#000000;shape-rendering:crispEdges;"/>
  <rect x="69.1891891891892" y="152.21621621621622" width="6.918918918918919" height="6.918918918918919" style="fill:#000000;shape-rendering:crispEdges;"/>
  <rect x="76.10810810810811" y="152.21621621621622" width="6.918918918918919" height="6.918918918918919" style="fill:#000000;shape-rendering:crispEdges;"/>
  <rect x="83.02702702702703" y="152.21621621621622" width="6.918918918918919" height="6.918918918918919" style="fill:#000000;shape-rendering:crispEdges;"/>
  <rect x="96.86486486486487" y="152.21621621621622" width="6.918918918918919" height="6.918918918918919" style="fill:#000000;shape-rendering:crispEdges;"/>
  <rect x="110.70270270270271" y="152.21621621621622" width="6.918918918918919" height="6.918918918918919" style="fill:#000000;shape-rendering:crispEdges;"/>
  <rect x="131.45945945945948" y="152.21621621621622" width="6.918918918918919" height="6.918918918918919" style="fill:#000000;shape-rendering:crispEdges;"/>
  <rect x="138.3783783783784" y="152.21621621621622" width="6.918918918918919" height="6.918918918918919" style="fill:#000000;shape-rendering:crispEdges;"/>
  <rect x="145.2972972972973" y="152.21621621621622" width="6.918918918918919" height="6.918918918918919" style="fill:#000000;shape-rendering:crispEdges;"/>
  <rect x="159.13513513513516" y="152.21621621621622" width="6.918918918918919" height="6.918918918918919" style="fill:#000000;shape-rendering:crispEdges;"/>
  <rect x="186.81081081081084" y="152.21621621621622" width="6.918918918918919" height="6.918918918918919" style="fill:#000000;shape-rendering:crispEdges;"/>
  <rect x="214.4864864864865" y="152.21621621621622" width="6.918918918918919" height="6.918918918918919" style="fill:#000000;shape-rendering:crispEdges;"/>
  <rect x="27.675675675675677" y="159.13513513513516" width="6.918918918918919" height="6.918918918918919" style="fill:#000000;shape-rendering:crispEdges;"/>
  <rect x="41.513513513513516" y="159.13513513513516" width="6.918918918918919" height="6.918918918918919" style="fill:#000000;shape-rendering:crispEdges;"/>
  <rect x="48.432432432432435" y="159.13513513513516" width="6.918918918918919" height="6.918918918918919" style="fill:#000000;shape-rendering:crispEdges;"/>
  <rect x="55.351351351351354" y="159.13513513513516" width="6.918918918918919" height="6.918918918918919" style="fill:#000000;shape-rendering:crispEdges;"/>
  <rect x="62.270270270270274" y="159.13513513513516" width="6.918918918918919" height="6.918918918918919" style="fill:#000000;shape-rendering:crispEdges;"/>
  <rect x="83.02702702702703" y="159.13513513513516" width="6.918918918918919" height="6.918918918918919" style="fill:#000000;shape-rendering:crispEdges;"/>
  <rect x="89.94594594594595" y="159.13513513513516" width="6.918918918918919" height="6.918918918918919" style="fill:#000000;shape-rendering:crispEdges;"/>
  <rect x="110.70270270270271" y="159.13513513513516" width="6.918918918918919" height="6.918918918918919" style="fill:#000000;shape-rendering:crispEdges;"/>
  <rect x="117.62162162162163" y="159.13513513513516" width="6.918918918918919" height="6.918918918918919" style="fill:#000000;shape-rendering:crispEdges;"/>
  <rect x="138.3783783783784" y="159.13513513513516" width="6.918918918918919" height="6.918918918918919" style="fill:#000000;shape-rendering:crispEdges;"/>
  <rect x="145.2972972972973" y="159.13513513513516" width="6.918918918918919" height="6.918918918918919" style="fill:#000000;shape-rendering:crispEdges;"/>
  <rect x="152.21621621621622" y="159.13513513513516" width="6.918918918918919" height="6.918918918918919" style="fill:#000000;shape-rendering:crispEdges;"/>
  <rect x="159.13513513513516" y="159.13513513513516" width="6.918918918918919" height="6.918918918918919" style="fill:#000000;shape-rendering:crispEdges;"/>
  <rect x="186.81081081081084" y="159.13513513513516" width="6.918918918918919" height="6.918918918918919" style="fill:#000000;shape-rendering:crispEdges;"/>
  <rect x="193.72972972972974" y="159.13513513513516" width="6.918918918918919" height="6.918918918918919" style="fill:#000000;shape-rendering:crispEdges;"/>
  <rect x="200.64864864864865" y="159.13513513513516" width="6.918918918918919" height="6.918918918918919" style="fill:#000000;shape-rendering:crispEdges;"/>
  <rect x="221.40540540540542" y="159.13513513513516" width="6.918918918918919" height="6.918918918918919" style="fill:#000000;shape-rendering:crispEdges;"/>
  <rect x="34.5945945945946" y="166.05405405405406" width="6.918918918918919" height="6.918918918918919" style="fill:#000000;shape-rendering:crispEdges;"/>
  <rect x="41.513513513513516" y="166.05405405405406" width="6.918918918918919" height="6.918918918918919" style="fill:#000000;shape-rendering:crispEdges;"/>
  <rect x="48.432432432432435" y="166.05405405405406" width="6.918918918918919" height="6.918918918918919" style="fill:#000000;shape-rendering:crispEdges;"/>
  <rect x="69.1891891891892" y="166.05405405405406" width="6.918918918918919" height="6.918918918918919" style="fill:#000000;shape-rendering:crispEdges;"/>
  <rect x="76.10810810810811" y="166.05405405405406" width="6.918918918918919" height="6.918918918918919" style="fill:#000000;shape-rendering:crispEdges;"/>
  <rect x="89.94594594594595" y="166.05405405405406" width="6.918918918918919" height="6.918918918918919" style="fill:#000000;shape-rendering:crispEdges;"/>
  <rect x="96.86486486486487" y="166.05405405405406" width="6.918918918918919" height="6.918918918918919" style="fill:#000000;shape-rendering:crispEdges;"/>
  <rect x="110.70270270270271" y="166.05405405405406" width="6.918918918918919" height="6.918918918918919" style="fill:#000000;shape-rendering:crispEdges;"/>
  <rect x="131.45945945945948" y="166.05405405405406" width="6.918918918918919" height="6.918918918918919" style="fill:#000000;shape-rendering:crispEdges;"/>
  <rect x="138.3783783783784" y="166.05405405405406" width="6.918918918918919" height="6.918918918918919" style="fill:#000000;shape-rendering:crispEdges;"/>
  <rect x="159.13513513513516" y="166.05405405405406" width="6.918918918918919" height="6.918918918918919" style="fill:#000000;shape-rendering:crispEdges;"/>
  <rect x="166.05405405405406" y="166.05405405405406" width="6.918918918918919" height="6.918918918918919" style="fill:#000000;shape-rendering:crispEdges;"/>
  <rect x="172.97297297297297" y="166.05405405405406" width="6.918918918918919" height="6.918918918918919" style="fill:#000000;shape-rendering:crispEdges;"/>
  <rect x="179.8918918918919" y="166.05405405405406" width="6.918918918918919" height="6.918918918918919" style="fill:#000000;shape-rendering:crispEdges;"/>
  <rect x="186.81081081081084" y="166.05405405405406" width="6.918918918918919" height="6.918918918918919" style="fill:#000000;shape-rendering:crispEdges;"/>
  <rect x="193.72972972972974" y="166.05405405405406" width="6.918918918918919" height="6.918918918918919" style="fill:#000000;shape-rendering:crispEdges;"/>
  <rect x="200.64864864864865" y="166.05405405405406" width="6.918918918918919" height="6.918918918918919" style="fill:#000000;shape-rendering:crispEdges;"/>
  <rect x="221.40540540540542" y="166.05405405405406" width="6.918918918918919" height="6.918918918918919" style="fill:#000000;shape-rendering:crispEdges;"/>
  <rect x="96.86486486486487" y="172.97297297297297" width="6.918918918918919" height="6.918918918918919" style="fill:#000000;shape-rendering:crispEdges;"/>
  <rect x="110.70270270270271" y="172.97297297297297" width="6.918918918918919" height="6.918918918918919" style="fill:#000000;shape-rendering:crispEdges;"/>
  <rect x="117.62162162162163" y="172.97297297297297" width="6.918918918918919" height="6.918918918918919" style="fill:#000000;shape-rendering:crispEdges;"/>
  <rect x="131.45945945945948" y="172.97297297297297" width="6.918918918918919" height="6.918918918918919" style="fill:#000000;shape-rendering:crispEdges;"/>
  <rect x="138.3783783783784" y="172.97297297297297" width="6.918918918918919" height="6.918918918918919" style="fill:#000000;shape-rendering:crispEdges;"/>
  <rect x="152.21621621621622" y="172.97297297297297" width="6.918918918918919" height="6.918918918918919" style="fill:#000000;shape-rendering:crispEdges;"/>
  <rect x="166.05405405405406" y="172.97297297297297" width="6.918918918918919" height="6.918918918918919" style="fill:#000000;shape-rendering:crispEdges;"/>
  <rect x="193.72972972972974" y="172.97297297297297" width="6.918918918918919" height="6.918918918918919" style="fill:#000000;shape-rendering:crispEdges;"/>
  <rect x="207.56756756756758" y="172.97297297297297" width="6.918918918918919" height="6.918918918918919" style="fill:#000000;shape-rendering:crispEdges;"/>
  <rect x="221.40540540540542" y="172.97297297297297" width="6.918918918918919" height="6.918918918918919" style="fill:#000000;shape-rendering:crispEdges;"/>
  <rect x="27.675675675675677" y="179.8918918918919" width="6.918918918918919" height="6.918918918918919" style="fill:#000000;shape-rendering:crispEdges;"/>
  <rect x="34.5945945945946" y="179.8918918918919" width="6.918918918918919" height="6.918918918918919" style="fill:#000000;shape-rendering:crispEdges;"/>
  <rect x="41.513513513513516" y="179.8918918918919" width="6.918918918918919" height="6.918918918918919" style="fill:#000000;shape-rendering:crispEdges;"/>
  <rect x="48.432432432432435" y="179.8918918918919" width="6.918918918918919" height="6.918918918918919" style="fill:#000000;shape-rendering:crispEdges;"/>
  <rect x="55.351351351351354" y="179.8918918918919" width="6.918918918918919" height="6.918918918918919" style="fill:#000000;shape-rendering:crispEdges;"/>
  <rect x="62.270270270270274" y="179.8918918918919" width="6.918918918918919" height="6.918918918918919" style="fill:#000000;shape-rendering:crispEdges;"/>
  <rect x="69.1891891891892" y="179.8918918918919" width="6.918918918918919" height="6.918918918918919" style="fill:#000000;shape-rendering:crispEdges;"/>
  <rect x="83.02702702702703" y="179.8918918918919" width="6.918918918918919" height="6.918918918918919" style="fill:#000000;shape-rendering:crispEdges;"/>
  <rect x="103.78378378378379" y="179.8918918918919" width="6.918918918918919" height="6.918918918918919" style="fill:#000000;shape-rendering:crispEdges;"/>
  <rect x="124.54054054054055" y="179.8918918918919" width="6.918918918918919" height="6.918918918918919" style="fill:#000000;shape-rendering:crispEdges;"/>
  <rect x="131.45945945945948" y="179.8918918918919" width="6.918918918918919" height="6.918918918918919" style="fill:#000000;shape-rendering:crispEdges;"/>
  <rect x="152.21621621621622" y="179.8918918918919" width="6.918918918918919" height="6.918918918918919" style="fill:#000000;shape-rendering:crispEdges;"/>
  <rect x="166.05405405405406" y="179.8918918918919" width="6.918918918918919" height="6.918918918918919" style="fill:#000000;shape-rendering:crispEdges;"/>
  <rect x="179.8918918918919" y="179.8918918918919" width="6.918918918918919" height="6.918918918918919" style="fill:#000000;shape-rendering:crispEdges;"/>
  <rect x="193.72972972972974" y="179.8918918918919" width="6.918918918918919" height="6.918918918918919" style="fill:#000000;shape-rendering:crispEdges;"/>
  <rect x="214.4864864864865" y="179.8918918918919" width="6.918918918918919" height="6.918918918918919" style="fill:#000000;shape-rendering:crispEdges;"/>
  <rect x="27.675675675675677" y="186.81081081081084" width="6.918918918918919" height="6.918918918918919" style="fill:#000000;shape-rendering:crispEdges;"/>
  <rect x="69.1891891891892" y="186.81081081081084" width="6.918918918918919" height="6.918918918918919" style="fill:#000000;shape-rendering:crispEdges;"/>
  <rect x="83.02702702702703" y="186.81081081081084" width="6.918918918918919" height="6.918918918918919" style="fill:#000000;shape-rendering:crispEdges;"/>
  <rect x="89.94594594594595" y="186.81081081081084" width="6.918918918918919" height="6.918918918918919" style="fill:#000000;shape-rendering:crispEdges;"/>
  <rect x="117.62162162162163" y="186.81081081081084" width="6.918918918918919" height="6.918918918918919" style="fill:#000000;shape-rendering:crispEdges;"/>
  <rect x="124.54054054054055" y="186.81081081081084" width="6.918918918918919" height="6.918918918918919" style="fill:#000000;shape-rendering:crispEdges;"/>
  <rect x="131.45945945945948" y="186.81081081081084" width="6.918918918918919" height="6.918918918918919" style="fill:#000000;shape-rendering:crispEdges;"/>
  <rect x="145.2972972972973" y="186.81081081081084" width="6.918918918918919" height="6.918918918918919" style="fill:#000000;shape-rendering:crispEdges;"/>
  <rect x="159.13513513513516" y="186.81081081081084" width="6.918918918918919" height="6.918918918918919" style="fill:#000000;shape-rendering:crispEdges;"/>
  <rect x="166.05405405405406" y="186.81081081081084" width="6.918918918918919" height="6.918918918918919" style="fill:#000000;shape-rendering:crispEdges;"/>
  <rect x="193.72972972972974" y="186.81081081081084" width="6.918918918918919" height="6.918918918918919" style="fill:#000000;shape-rendering:crispEdges;"/>
  <rect x="207.56756756756758" y="186.81081081081084" width="6.918918918918919" height="6.918918918918919" style="fill:#000000;shape-rendering:crispEdges;"/>
  <rect x="27.675675675675677" y="193.72972972972974" width="6.918918918918919" height="6.918918918918919" style="fill:#000000;shape-rendering:crispEdges;"/>
  <rect x="41.513513513513516" y="193.72972972972974" width="6.918918918918919" height="6.918918918918919" style="fill:#000000;shape-rendering:crispEdges;"/>
  <rect x="48.432432432432435" y="193.72972972972974" width="6.918918918918919" height="6.918918918918919" style="fill:#000000;shape-rendering:crispEdges;"/>
  <rect x="55.351351351351354" y="193.72972972972974" width="6.918918918918919" height="6.918918918918919" style="fill:#000000;shape-rendering:crispEdges;"/>
  <rect x="69.1891891891892" y="193.72972972972974" width="6.918918918918919" height="6.918918918918919" style="fill:#000000;shape-rendering:crispEdges;"/>
  <rect x="89.94594594594595" y="193.72972972972974" width="6.918918918918919" height="6.918918918918919" style="fill:#000000;shape-rendering:crispEdges;"/>
  <rect x="96.86486486486487" y="193.72972972972974" width="6.918918918918919" height="6.918918918918919" style="fill:#000000;shape-rendering:crispEdges;"/>
  <rect x="103.78378378378379" y="193.72972972972974" width="6.918918918918919" height="6.918918918918919" style="fill:#000000;shape-rendering:crispEdges;"/>
  <rect x="110.70270270270271" y="193.72972972972974" width="6.918918918918919" height="6.918918918918919" style="fill:#000000;shape-rendering:crispEdges;"/>
  <rect x="117.62162162162163" y="193.72972972972974" width="6.918918918918919" height="6.918918918918919" style="fill:#000000;shape-rendering:crispEdges;"/>
  <rect x="138.3783783783784" y="193.72972972972974" width="6.918918918918919" height="6.918918918918919" style="fill:#000000;shape-rendering:crispEdges;"/>
  <rect x="145.2972972972973" y="193.72972972972974" width="6.918918918918919" height="6.918918918918919" style="fill:#000000;shape-rendering:crispEdges;"/>
  <rect x="152.21621621621622" y="193.72972972972974" width="6.918918918918919" height="6.918918918918919" style="fill:#000000;shape-rendering:crispEdges;"/>
  <rect x="166.05405405405406" y="193.72972972972974" width="6.918918918918919" height="6.918918918918919" style="fill:#000000;shape-rendering:crispEdges;"/>
  <rect x="172.97297297297297" y="193.72972972972974" width="6.918918918918919" height="6.918918918918919" style="fill:#000000;shape-rendering:crispEdges;"/>
  <rect x="179.8918918918919" y="193.72972972972974" width="6.918918918918919" height="6.918918918918919" style="fill:#000000;shape-rendering:crispEdges;"/>
  <rect x="186.81081081081084" y="193.72972972972974" width="6.918918918918919" height="6.918918918918919" style="fill:#000000;shape-rendering:crispEdges;"/>
  <rect x="193.72972972972974" y="193.72972972972974" width="6.918918918918919" height="6.918918918918919" style="fill:#000000;shape-rendering:crispEdges;"/>
  <rect x="214.4864864864865" y="193.72972972972974" width="6.918918918918919" height="6.918918918918919" style="fill:#000000;shape-rendering:crispEdges;"/>
  <rect x="221.40540540540542" y="193.72972972972974" width="6.918918918918919" height="6.918918918918919" style="fill:#000000;shape-rendering:crispEdges;"/>
  <rect x="27.675675675675677" y="200.64864864864865" width="6.918918918918919" height="6.918918918918919" style="fill:#000000;shape-rendering:crispEdges;"/>
  <rect x="41.513513513513516" y="200.64864864864865" width="6.918918918918919" height="6.918918918918919" style="fill:#000000;shape-rendering:crispEdges;"/>
  <rect x="48.432432432432435" y="200.64864864864865" width="6.918918918918919" height="6.918918918918919" style="fill:#000000;shape-rendering:crispEdges;"/>
  <rect x="55.351351351351354" y="200.64864864864865" width="6.918918918918919" height="6.918918918918919" style="fill:#000000;shape-rendering:crispEdges;"/>
  <rect x="69.1891891891892" y="200.64864864864865" width="6.918918918918919" height="6.918918918918919" style="fill:#000000;shape-rendering:crispEdges;"/>
  <rect x="89.94594594594595" y="200.64864864864865" width="6.918918918918919" height="6.918918918918919" style="fill:#000000;shape-rendering:crispEdges;"/>
  <rect x="96.86486486486487" y="200.64864864864865" width="6.918918918918919" height="6.918918918918919" style="fill:#000000;shape-rendering:crispEdges;"/>
  <rect x="103.78378378378379" y="200.64864864864865" width="6.918918918918919" height="6.918918918918919" style="fill:#000000;shape-rendering:crispEdges;"/>
  <rect x="117.62162162162163" y="200.64864864864865" width="6.918918918918919" height="6.918918918918919" style="fill:#000000;shape-rendering:crispEdges;"/>
  <rect x="131.45945945945948" y="200.64864864864865" width="6.918918918918919" height="6.918918918918919" style="fill:#000000;shape-rendering:crispEdges;"/>
  <rect x="138.3783783783784" y="200.64864864864865" width="6.918918918918919" height="6.918918918918919" style="fill:#000000;shape-rendering:crispEdges;"/>
  <rect x="145.2972972972973" y="200.64864864864865" width="6.918918918918919" height="6.918918918918919" style="fill:#000000;shape-rendering:crispEdges;"/>
  <rect x="166.05405405405406" y="200.64864864864865" width="6.918918918918919" height="6.918918918918919" style="fill:#000000;shape-rendering:crispEdges;"/>
  <rect x="172.97297297297297" y="200.64864864864865" width="6.918918918918919" height="6.918918918918919" style="fill:#000000;shape-rendering:crispEdges;"/>
  <rect x="179.8918918918919" y="200.64864864864865" width="6.918918918918919" height="6.918918918918919" style="fill:#000000;shape-rendering:crispEdges;"/>
  <rect x="186.81081081081084" y="200.64864864864865" width="6.918918918918919" height="6.918918918918919" style="fill:#000000;shape-rendering:crispEdges;"/>
  <rect x="200.64864864864865" y="200.64864864864865" width="6.918918918918919" height="6.918918918918919" style="fill:#000000;shape-rendering:crispEdges;"/>
  <rect x="214.4864864864865" y="200.64864864864865" width="6.918918918918919" height="6.918918918918919" style="fill:#000000;shape-rendering:crispEdges;"/>
  <rect x="221.40540540540542" y="200.64864864864865" width="6.918918918918919" height="6.918918918918919" style="fill:#000000;shape-rendering:crispEdges;"/>
  <rect x="27.675675675675677" y="207.56756756756758" width="6.918918918918919" height="6.918918918918919" style="fill:#000000;shape-rendering:crispEdges;"/>
  <rect x="41.513513513513516" y="207.56756756756758" width="6.918918918918919" height="6.918918918918919" style="fill:#000000;shape-rendering:crispEdges;"/>
  <rect x="48.432432432432435" y="207.56756756756758" width="6.918918918918919" height="6.918918918918919" style="fill:#000000;shape-rendering:crispEdges;"/>
  <rect x="55.351351351351354" y="207.56756756756758" width="6.918918918918919" height="6.918918918918919" style="fill:#000000;shape-rendering:crispEdges;"/>
  <rect x="69.1891891891892" y="207.56756756756758" width="6.918918918918919" height="6.918918918918919" style="fill:#000000;shape-rendering:crispEdges;"/>
  <rect x="89.94594594594595" y="207.56756756756758" width="6.918918918918919" height="6.918918918918919" style="fill:#000000;shape-rendering:crispEdges;"/>
  <rect x="110.70270270270271" y="207.56756756756758" width="6.918918918918919" height="6.918918918918919" style="fill:#000000;shape-rendering:crispEdges;"/>
  <rect x="138.3783783783784" y="207.56756756756758" width="6.918918918918919" height="6.918918918918919" style="fill:#000000;shape-rendering:crispEdges;"/>
  <rect x="145.2972972972973" y="207.56756756756758" width="6.918918918918919" height="6.918918918918919" style="fill:#000000;shape-rendering:crispEdges;"/>
  <rect x="152.21621621621622" y="207.56756756756758" width="6.918918918918919" height="6.918918918918919" style="fill:#000000;shape-rendering:crispEdges;"/>
  <rect x="193.72972972972974" y="207.56756756756758" width="6.918918918918919" height="6.918918918918919" style="fill:#000000;shape-rendering:crispEdges;"/>
  <rect x="200.64864864864865" y="207.56756756756758" width="6.918918918918919" height="6.918918918918919" style="fill:#000000;shape-rendering:crispEdges;"/>
  <rect x="221.40540540540542" y="207.56756756756758" width="6.918918918918919" height="6.918918918918919" style="fill:#000000;shape-rendering:crispEdges;"/>
  <rect x="27.675675675675677" y="214.4864864864865" width="6.918918918918919" height="6.918918918918919" style="fill:#000000;shape-rendering:crispEdges;"/>
  <rect x="69.1891891891892" y="214.4864864864865" width="6.918918918918919" height="6.918918918918919" style="fill:#000000;shape-rendering:crispEdges;"/>
  <rect x="83.02702702702703" y="214.4864864864865" width="6.918918918918919" height="6.918918918918919" style="fill:#000000;shape-rendering:crispEdges;"/>
  <rect x="103.78378378378379" y="214.4864864864865" width="6.918918918918919" height="6.918918918918919" style="fill:#000000;shape-rendering:crispEdges;"/>
  <rect x="110.70270270270271" y="214.4864864864865" width="6.918918918918919" height="6.918918918918919" style="fill:#000000;shape-rendering:crispEdges;"/>
  <rect x="117.62162162162163" y="214.4864864864865" width="6.918918918918919" height="6.918918918918919" style="fill:#000000;shape-rendering:crispEdges;"/>
  <rect x="131.45945945945948" y="214.4864864864865" width="6.918918918918919" height="6.918918918918919" style="fill:#000000;shape-rendering:crispEdges;"/>
  <rect x="145.2972972972973" y="214.4864864864865" width="6.918918918918919" height="6.918918918918919" style="fill:#000000;shape-rendering:crispEdges;"/>
  <rect x="159.13513513513516" y="214.4864864864865" width="6.918918918918919" height="6.918918918918919" style="fill:#000000;shape-rendering:crispEdges;"/>
  <rect x="166.05405405405406" y="214.4864864864865" width="6.918918918918919" height="6.918918918918919" style="fill:#000000;shape-rendering:crispEdges;"/>
  <rect x="179.8918918918919" y="214.4864864864865" width="6.918918918918919" height="6.918918918918919" style="fill:#000000;shape-rendering:crispEdges;"/>
  <rect x="186.81081081081084" y="214.4864864864865" width="6.918918918918919" height="6.918918918918919" style="fill:#000000;shape-rendering:crispEdges;"/>
  <rect x="193.72972972972974" y="214.4864864864865" width="6.918918918918919" height="6.918918918918919" style="fill:#000000;shape-rendering:crispEdges;"/>
  <rect x="200.64864864864865" y="214.4864864864865" width="6.918918918918919" height="6.918918918918919" style="fill:#000000;shape-rendering:crispEdges;"/>
  <rect x="207.56756756756758" y="214.4864864864865" width="6.918918918918919" height="6.918918918918919" style="fill:#000000;shape-rendering:crispEdges;"/>
  <rect x="214.4864864864865" y="214.4864864864865" width="6.918918918918919" height="6.918918918918919" style="fill:#000000;shape-rendering:crispEdges;"/>
  <rect x="221.40540540540542" y="214.4864864864865" width="6.918918918918919" height="6.918918918918919" style="fill:#000000;shape-rendering:crispEdges;"/>
  <rect x="27.675675675675677" y="221.40540540540542" width="6.918918918918919" height="6.918918918918919" style="fill:#000000;shape-rendering:crispEdges;"/>
  <rect x="34.5945945945946" y="221.40540540540542" width="6.918918918918919" height="6.918918918918919" style="fill:#000000;shape-rendering:crispEdges;"/>
  <rect x="41.513513513513516" y="221.40540540540542" width="6.918918918918919" height="6.918918918918919" style="fill:#000000;shape-rendering:crispEdges;"/>
  <rect x="48.432432432432435" y="221.40540540540542" width="6.918918918918919" height="6.918918918918919" style="fill:#000000;shape-rendering:crispEdges;"/>
  <rect x="55.351351351351354" y="221.40540540540542" width="6.918918918918919" height="6.918918918918919" style="fill:#000000;shape-rendering:crispEdges;"/>
  <rect x="62.270270270270274" y="221.40540540540542" width="6.918918918918919" height="6.918918918918919" style="fill:#000000;shape-rendering:crispEdges;"/>
  <rect x="69.1891891891892" y="221.40540540540542" width="6.918918918918919" height="6.918918918918919" style="fill:#000000;shape-rendering:crispEdges;"/>
  <rect x="96.86486486486487" y="221.40540540540542" width="6.918918918918919" height="6.918918918918919" style="fill:#000000;shape-rendering:crispEdges;"/>
  <rect x="103.78378378378379" y="221.40540540540542" width="6.918918918918919" height="6.918918918918919" style="fill:#000000;shape-rendering:crispEdges;"/>
  <rect x="124.54054054054055" y="221.40540540540542" width="6.918918918918919" height="6.918918918918919" style="fill:#000000;shape-rendering:crispEdges;"/>
  <rect x="131.45945945945948" y="221.40540540540542" width="6.918918918918919" height="6.918918918918919" style="fill:#000000;shape-rendering:crispEdges;"/>
  <rect x="152.21621621621622" y="221.40540540540542" width="6.918918918918919" height="6.918918918918919" style="fill:#000000;shape-rendering:crispEdges;"/>
  <rect x="159.13513513513516" y="221.40540540540542" width="6.918918918918919" height="6.918918918918919" style="fill:#000000;shape-rendering:crispEdges;"/>
  <rect x="172.97297297297297" y="221.40540540540542" width="6.918918918918919" height="6.918918918918919" style="fill:#000000;shape-rendering:crispEdges;"/>
  <rect x="179.8918918918919" y="221.40540540540542" width="6.918918918918919" height="6.918918918918919" style="fill:#000000;shape-rendering:crispEdges;"/>
  <rect x="186.81081081081084" y="221.40540540540542" width="6.918918918918919" height="6.918918918918919" style="fill:#000000;shape-rendering:crispEdges;"/>
  <rect x="207.56756756756758" y="221.40540540540542" width="6.918918918918919" height="6.918918918918919" style="fill:#000000;shape-rendering:crispEdges;"/>
  <rect x="214.4864864864865" y="221.40540540540542" width="6.918918918918919" height="6.918918918918919" style="fill:#000000;shape-rendering:crispEdges;"/>
</svg>